<mxfile host="app.diagrams.net" modified="2023-11-18T05:19:42.067Z" agent="Mozilla/5.0 (Windows NT 10.0; Win64; x64) AppleWebKit/537.36 (KHTML, like Gecko) Chrome/119.0.0.0 Safari/537.36" etag="mPr0Dx5y-JCZ7AzcfZ0r" version="22.1.3" type="device">
  <diagram name="Страница — 1" id="rarte1bhXnpKHiEv-fKR">
    <mxGraphModel dx="4014" dy="2818" grid="1" gridSize="10" guides="1" tooltips="1" connect="1" arrows="1" fold="1" page="1" pageScale="1" pageWidth="827" pageHeight="1169" math="0" shadow="0">
      <root>
        <mxCell id="0" />
        <mxCell id="1" parent="0" />
        <mxCell id="qvbCrt1wh14UAXiFfXzi-1" value="&lt;p style=&quot;line-height: 110%;&quot;&gt;&lt;br&gt;&lt;/p&gt;" style="rounded=0;whiteSpace=wrap;html=1;" vertex="1" parent="1">
          <mxGeometry x="30" y="90" width="876" height="670" as="geometry" />
        </mxCell>
        <mxCell id="qvbCrt1wh14UAXiFfXzi-2" value="IT News" style="text;html=1;strokeColor=none;fillColor=none;align=center;verticalAlign=middle;whiteSpace=wrap;rounded=0;" vertex="1" parent="1">
          <mxGeometry x="30" y="90" width="60" height="30" as="geometry" />
        </mxCell>
        <mxCell id="qvbCrt1wh14UAXiFfXzi-3" value="Сохранить статью в хранилище" style="ellipse;whiteSpace=wrap;html=1;" vertex="1" parent="1">
          <mxGeometry x="770" y="220" width="120" height="80" as="geometry" />
        </mxCell>
        <mxCell id="qvbCrt1wh14UAXiFfXzi-4" value="Прочитать статью из хранилища" style="ellipse;whiteSpace=wrap;html=1;" vertex="1" parent="1">
          <mxGeometry x="260" y="220" width="120" height="80" as="geometry" />
        </mxCell>
        <mxCell id="qvbCrt1wh14UAXiFfXzi-5" value="Периодически прочитать страницу со списком статей" style="ellipse;whiteSpace=wrap;html=1;" vertex="1" parent="1">
          <mxGeometry x="70" y="220" width="120" height="80" as="geometry" />
        </mxCell>
        <mxCell id="qvbCrt1wh14UAXiFfXzi-6" value="Проверить наличие статей в хранилище" style="ellipse;whiteSpace=wrap;html=1;" vertex="1" parent="1">
          <mxGeometry x="580" y="220" width="120" height="80" as="geometry" />
        </mxCell>
        <mxCell id="qvbCrt1wh14UAXiFfXzi-7" value="Прочитать статью" style="ellipse;whiteSpace=wrap;html=1;" vertex="1" parent="1">
          <mxGeometry x="414" y="390" width="120" height="80" as="geometry" />
        </mxCell>
        <mxCell id="qvbCrt1wh14UAXiFfXzi-8" value="Создать summary по статьям" style="ellipse;whiteSpace=wrap;html=1;" vertex="1" parent="1">
          <mxGeometry x="150" y="350" width="120" height="80" as="geometry" />
        </mxCell>
        <mxCell id="qvbCrt1wh14UAXiFfXzi-10" value="&amp;lt;include&amp;gt;" style="edgeStyle=orthogonalEdgeStyle;rounded=0;orthogonalLoop=1;jettySize=auto;html=1;entryX=0.058;entryY=0.813;entryDx=0;entryDy=0;entryPerimeter=0;dashed=1;" edge="1" parent="1" source="qvbCrt1wh14UAXiFfXzi-9" target="qvbCrt1wh14UAXiFfXzi-7">
          <mxGeometry x="-0.0055" relative="1" as="geometry">
            <mxPoint as="offset" />
          </mxGeometry>
        </mxCell>
        <mxCell id="qvbCrt1wh14UAXiFfXzi-9" value="Определить категорию статьи" style="ellipse;whiteSpace=wrap;html=1;" vertex="1" parent="1">
          <mxGeometry x="140" y="450" width="120" height="80" as="geometry" />
        </mxCell>
        <mxCell id="qvbCrt1wh14UAXiFfXzi-11" value="&lt;span style=&quot;color: rgb(0, 0, 0); font-family: Helvetica; font-size: 11px; font-style: normal; font-variant-ligatures: normal; font-variant-caps: normal; font-weight: 400; letter-spacing: normal; orphans: 2; text-align: center; text-indent: 0px; text-transform: none; widows: 2; word-spacing: 0px; -webkit-text-stroke-width: 0px; background-color: rgb(255, 255, 255); text-decoration-thickness: initial; text-decoration-style: initial; text-decoration-color: initial; float: none; display: inline !important;&quot;&gt;&amp;lt;include&amp;gt;&lt;/span&gt;" style="edgeStyle=orthogonalEdgeStyle;rounded=0;orthogonalLoop=1;jettySize=auto;html=1;entryX=0.05;entryY=0.25;entryDx=0;entryDy=0;entryPerimeter=0;dashed=1;" edge="1" parent="1" source="qvbCrt1wh14UAXiFfXzi-8" target="qvbCrt1wh14UAXiFfXzi-7">
          <mxGeometry relative="1" as="geometry" />
        </mxCell>
        <mxCell id="qvbCrt1wh14UAXiFfXzi-12" value="Просмотр последних статей" style="ellipse;whiteSpace=wrap;html=1;" vertex="1" parent="1">
          <mxGeometry x="680" y="585" width="120" height="80" as="geometry" />
        </mxCell>
        <mxCell id="qvbCrt1wh14UAXiFfXzi-13" value="Поиск по категориям" style="ellipse;whiteSpace=wrap;html=1;" vertex="1" parent="1">
          <mxGeometry x="430" y="580" width="120" height="80" as="geometry" />
        </mxCell>
        <mxCell id="qvbCrt1wh14UAXiFfXzi-14" value="Контекстный поиск" style="ellipse;whiteSpace=wrap;html=1;" vertex="1" parent="1">
          <mxGeometry x="150" y="585" width="120" height="80" as="geometry" />
        </mxCell>
        <mxCell id="qvbCrt1wh14UAXiFfXzi-30" style="edgeStyle=orthogonalEdgeStyle;rounded=0;orthogonalLoop=1;jettySize=auto;html=1;entryX=0.5;entryY=1;entryDx=0;entryDy=0;endArrow=none;endFill=0;" edge="1" parent="1" source="qvbCrt1wh14UAXiFfXzi-15" target="qvbCrt1wh14UAXiFfXzi-14">
          <mxGeometry relative="1" as="geometry" />
        </mxCell>
        <mxCell id="qvbCrt1wh14UAXiFfXzi-31" style="edgeStyle=orthogonalEdgeStyle;rounded=0;orthogonalLoop=1;jettySize=auto;html=1;endArrow=none;endFill=0;" edge="1" parent="1" source="qvbCrt1wh14UAXiFfXzi-15" target="qvbCrt1wh14UAXiFfXzi-13">
          <mxGeometry relative="1" as="geometry" />
        </mxCell>
        <mxCell id="qvbCrt1wh14UAXiFfXzi-32" style="edgeStyle=orthogonalEdgeStyle;rounded=0;orthogonalLoop=1;jettySize=auto;html=1;endArrow=none;endFill=0;" edge="1" parent="1" source="qvbCrt1wh14UAXiFfXzi-15" target="qvbCrt1wh14UAXiFfXzi-12">
          <mxGeometry relative="1" as="geometry" />
        </mxCell>
        <mxCell id="qvbCrt1wh14UAXiFfXzi-15" value="Читатель" style="shape=umlActor;verticalLabelPosition=bottom;verticalAlign=top;html=1;outlineConnect=0;" vertex="1" parent="1">
          <mxGeometry x="475" y="820" width="30" height="60" as="geometry" />
        </mxCell>
        <mxCell id="qvbCrt1wh14UAXiFfXzi-24" style="edgeStyle=orthogonalEdgeStyle;rounded=0;orthogonalLoop=1;jettySize=auto;html=1;entryX=0.5;entryY=0;entryDx=0;entryDy=0;exitX=0;exitY=0.3333333333333333;exitDx=0;exitDy=0;exitPerimeter=0;endArrow=none;endFill=0;" edge="1" parent="1" source="qvbCrt1wh14UAXiFfXzi-16" target="qvbCrt1wh14UAXiFfXzi-5">
          <mxGeometry relative="1" as="geometry" />
        </mxCell>
        <mxCell id="qvbCrt1wh14UAXiFfXzi-25" style="edgeStyle=orthogonalEdgeStyle;rounded=0;orthogonalLoop=1;jettySize=auto;html=1;exitX=0;exitY=0.3333333333333333;exitDx=0;exitDy=0;exitPerimeter=0;endArrow=none;endFill=0;" edge="1" parent="1" source="qvbCrt1wh14UAXiFfXzi-16" target="qvbCrt1wh14UAXiFfXzi-4">
          <mxGeometry relative="1" as="geometry" />
        </mxCell>
        <mxCell id="qvbCrt1wh14UAXiFfXzi-27" style="edgeStyle=orthogonalEdgeStyle;rounded=0;orthogonalLoop=1;jettySize=auto;html=1;entryX=0.5;entryY=0;entryDx=0;entryDy=0;exitX=1;exitY=0.3333333333333333;exitDx=0;exitDy=0;exitPerimeter=0;endArrow=none;endFill=0;" edge="1" parent="1" source="qvbCrt1wh14UAXiFfXzi-16" target="qvbCrt1wh14UAXiFfXzi-6">
          <mxGeometry relative="1" as="geometry" />
        </mxCell>
        <mxCell id="qvbCrt1wh14UAXiFfXzi-29" style="edgeStyle=orthogonalEdgeStyle;rounded=0;orthogonalLoop=1;jettySize=auto;html=1;entryX=0.5;entryY=0;entryDx=0;entryDy=0;exitX=1;exitY=0.3333333333333333;exitDx=0;exitDy=0;exitPerimeter=0;endArrow=none;endFill=0;" edge="1" parent="1" source="qvbCrt1wh14UAXiFfXzi-16" target="qvbCrt1wh14UAXiFfXzi-7">
          <mxGeometry relative="1" as="geometry" />
        </mxCell>
        <mxCell id="qvbCrt1wh14UAXiFfXzi-16" value="Сервис" style="shape=umlActor;verticalLabelPosition=bottom;verticalAlign=top;html=1;outlineConnect=0;" vertex="1" parent="1">
          <mxGeometry x="420" y="-10" width="30" height="60" as="geometry" />
        </mxCell>
        <mxCell id="qvbCrt1wh14UAXiFfXzi-18" style="edgeStyle=orthogonalEdgeStyle;rounded=0;orthogonalLoop=1;jettySize=auto;html=1;exitX=1;exitY=0.3333333333333333;exitDx=0;exitDy=0;exitPerimeter=0;endArrow=none;endFill=0;" edge="1" parent="1" source="qvbCrt1wh14UAXiFfXzi-17" target="qvbCrt1wh14UAXiFfXzi-8">
          <mxGeometry relative="1" as="geometry" />
        </mxCell>
        <mxCell id="qvbCrt1wh14UAXiFfXzi-19" style="edgeStyle=orthogonalEdgeStyle;rounded=0;orthogonalLoop=1;jettySize=auto;html=1;exitX=1;exitY=0.3333333333333333;exitDx=0;exitDy=0;exitPerimeter=0;endArrow=none;endFill=0;" edge="1" parent="1" source="qvbCrt1wh14UAXiFfXzi-17" target="qvbCrt1wh14UAXiFfXzi-9">
          <mxGeometry relative="1" as="geometry">
            <Array as="points">
              <mxPoint x="80" y="430" />
              <mxPoint x="80" y="490" />
            </Array>
          </mxGeometry>
        </mxCell>
        <mxCell id="qvbCrt1wh14UAXiFfXzi-17" value="AI ChatGPT" style="shape=umlActor;verticalLabelPosition=bottom;verticalAlign=top;html=1;outlineConnect=0;" vertex="1" parent="1">
          <mxGeometry x="-20" y="410" width="30" height="60" as="geometry" />
        </mxCell>
        <mxCell id="qvbCrt1wh14UAXiFfXzi-28" style="edgeStyle=orthogonalEdgeStyle;rounded=0;orthogonalLoop=1;jettySize=auto;html=1;entryX=0.5;entryY=0;entryDx=0;entryDy=0;exitX=1;exitY=0.3333333333333333;exitDx=0;exitDy=0;exitPerimeter=0;endArrow=none;endFill=0;" edge="1" parent="1" source="qvbCrt1wh14UAXiFfXzi-16" target="qvbCrt1wh14UAXiFfXzi-3">
          <mxGeometry relative="1" as="geometry" />
        </mxCell>
      </root>
    </mxGraphModel>
  </diagram>
</mxfile>
